<svg width="225" height="18" viewBox="0 0 225 18" fill="none" xmlns="http://www.w3.org/2000/svg">
<g clip-path="url(#clip0_12_535)">
<path d="M3.80046 2.88722L11.5194 16.6946L20.4422 16.7179L28.0195 2.88722H31.82V0.372559H20.395V2.88722H23.6998L18.1761 12.9459L12.5817 2.88722H16.5946V0.372559H0V2.88722H3.80046Z" fill="#5F5F5F"/>
<path d="M102.069 2.88725V0.395874H117.366V2.88725H113.565V14.1799H117.106C120.387 14.1799 122.535 12.0378 122.535 9.15062H125.061V16.7179H102.093V14.1567H105.941V2.86397H102.069V2.88725Z" fill="#5F5F5F"/>
<path d="M64.9854 0.0233154C57.3137 0.0233154 53.23 3.79531 53.23 8.54522C53.23 13.3417 57.1485 17.1835 65.0327 17.1835C72.9168 17.1835 76.7881 13.3417 76.7881 8.54522C76.7881 3.81859 72.6808 0.0233154 64.9854 0.0233154ZM64.9146 14.599C62.1056 14.5525 60.8781 11.5023 60.9253 8.45208C60.9725 5.30876 62.5069 2.56126 65.1271 2.60783C67.7473 2.6544 69.14 5.44846 69.0928 8.59179C69.0456 11.5488 67.7945 14.6456 64.9146 14.599Z" fill="#5F5F5F"/>
<path d="M151.121 2.88722L158.84 16.6946L167.763 16.7179L175.34 2.88722H179.141V0.372559H167.716V2.88722H171.021L165.497 12.9459L159.902 2.88722H163.915V0.372559H147.321V2.88722H151.121Z" fill="#5F5F5F"/>
<path d="M212.307 0.0233154C204.635 0.0233154 200.551 3.79531 200.551 8.54522C200.551 13.3417 204.47 17.1835 212.354 17.1835C220.238 17.1835 224.109 13.3417 224.109 8.54522C224.109 3.81859 220.002 0.0233154 212.307 0.0233154ZM212.236 14.599C209.427 14.5525 208.199 11.5023 208.247 8.45208C208.294 5.30876 209.828 2.56126 212.448 2.60783C215.069 2.6544 216.461 5.44846 216.414 8.59179C216.367 11.5488 215.116 14.6456 212.236 14.599Z" fill="#5F5F5F"/>
</g>
<defs>
<clipPath id="clip0_12_535">
<rect width="224.133" height="17.1835" fill="white"/>
</clipPath>
</defs>
</svg>
