<svg width="22" height="19" viewBox="0 0 22 19" fill="none" xmlns="http://www.w3.org/2000/svg">
<path d="M21.7014 12.6869C21.7014 16.0059 19.0108 18.6965 15.6918 18.6965L6.67742 18.6965C5.75548 18.6965 5.00809 17.9491 5.00809 17.0272L5.00809 5.67573C5.00809 3.83184 6.50286 2.33707 8.34676 2.33707L20.0321 2.33707C20.954 2.33707 21.7014 3.08446 21.7014 4.0064L21.7014 12.6869Z" fill="#E8F5E9"/>
<path d="M9.45243 7.89414C9.37205 7.89414 9.2974 7.87204 9.23109 7.83648V7.83743C9.23109 7.96391 9.18193 8.08269 9.09273 8.17165C9.00354 8.26085 8.88485 8.31001 8.75851 8.31001C8.67694 8.31001 8.60135 8.28736 8.53433 8.25086C8.52756 8.36657 8.48131 8.47472 8.3988 8.55732C8.3096 8.64652 8.19091 8.69568 8.06449 8.69568C7.81333 8.69568 7.60937 8.49825 7.59467 8.25078C7.51695 8.29279 7.42909 8.31481 7.33847 8.30899C7.0914 8.29279 6.8979 8.07931 6.8979 7.82287V5.69726L6.65586 6.11659C6.56368 6.27697 6.39111 6.37655 6.20531 6.37655C6.11477 6.37655 6.02534 6.35279 5.94613 6.30741C5.8475 6.25022 5.77694 6.15843 5.7476 6.04861C5.7181 5.93873 5.73336 5.82381 5.79039 5.72532C5.79047 5.72532 6.58232 4.35406 6.63062 4.26983C6.63637 4.25717 6.65273 4.22044 6.66665 4.18913C6.67994 4.15924 6.69135 4.12856 6.70228 4.09773C6.94108 3.42356 7.53237 3.00478 8.24548 3.00478C9.17152 3.00478 9.92491 3.82172 9.92491 4.82589L9.92499 7.42148C9.92499 7.54781 9.87591 7.6665 9.78679 7.75579C9.69759 7.84499 9.5789 7.89415 9.45242 7.89415L9.45243 7.89414ZM8.24549 3.2559C7.63274 3.2559 7.14435 3.602 6.93898 4.18171C6.92584 4.21852 6.91215 4.25533 6.89619 4.2912C6.84986 4.39511 6.84985 4.39511 6.8368 4.41006L6.83507 4.40856C6.77041 4.53056 6.57833 4.8632 6.00782 5.851C5.98438 5.89151 5.97816 5.93855 5.99012 5.98354C6.00223 6.02853 6.03126 6.06644 6.07146 6.08965C6.19621 6.16131 6.36706 6.11505 6.43816 5.99117L6.91475 5.16603C6.94323 5.11687 7.0008 5.09273 7.05602 5.10767C7.11093 5.12238 7.14907 5.17217 7.14907 5.22896V7.82295C7.14907 7.94534 7.24142 8.05097 7.35493 8.05844C7.42037 8.0619 7.48141 8.03996 7.52727 7.99418C7.56896 7.95249 7.59193 7.89696 7.59193 7.83757V6.14107C7.59193 6.07169 7.64817 6.01545 7.71754 6.01545C7.78692 6.01545 7.84316 6.07162 7.84316 6.14107L7.84308 8.22319C7.84308 8.34526 7.94243 8.44461 8.0645 8.44461C8.12381 8.44461 8.1795 8.42164 8.22127 8.37995C8.26296 8.33818 8.28593 8.28249 8.28593 8.22318V6.14107C8.28593 6.07169 8.34209 6.01545 8.41155 6.01545C8.48092 6.01545 8.53716 6.07161 8.53716 6.14107L8.53708 7.81806V7.83756C8.53708 7.95956 8.63643 8.0589 8.75859 8.0589C8.81782 8.0589 8.87335 8.03586 8.91535 7.99401C8.95704 7.9524 8.98001 7.89687 8.98001 7.83748V6.14098C8.98001 6.0716 9.03617 6.01536 9.10563 6.01536C9.175 6.01536 9.23124 6.07153 9.23124 6.14098L9.23109 7.42154C9.23109 7.5437 9.33043 7.64304 9.45243 7.64304C9.51181 7.64304 9.56735 7.62 9.60904 7.57839C9.65088 7.53654 9.67377 7.48085 9.67377 7.42154L9.67385 4.82595C9.67385 3.96032 9.0331 3.25592 8.24549 3.25592L8.24549 3.2559Z" fill="#103E13"/>
<path d="M4.51702 9.69812L6.33984 8.6046C6.55961 8.47261 6.84238 8.5287 6.98334 8.73234C7.03478 8.80652 7.06105 8.89297 7.06514 8.98099C7.1331 8.94552 7.20704 8.92624 7.28232 8.92624C7.32086 8.92624 7.35956 8.93104 7.39779 8.94056C7.52026 8.97116 7.62346 9.04769 7.68836 9.15592C7.75333 9.26431 7.77228 9.39133 7.74169 9.51366C7.71345 9.62685 7.64462 9.72212 7.54889 9.78748C7.61583 9.82697 7.67357 9.88085 7.71463 9.94944C7.7796 10.0578 7.79856 10.1848 7.76804 10.3073C7.73744 10.4296 7.6609 10.5328 7.55252 10.5978L7.55189 10.5982C7.61764 10.6376 7.67436 10.691 7.71495 10.7585C7.78 10.8669 7.79895 10.9939 7.76835 11.1164C7.73768 11.2388 7.66114 11.342 7.55291 11.407L5.32722 12.7422C4.91183 12.9913 4.43161 13.0773 3.97524 12.9841C3.51478 12.89 3.13343 12.6253 2.90156 12.2388C2.53461 11.6272 2.58961 10.9047 3.0448 10.3532C3.06564 10.328 3.08617 10.3024 3.10481 10.2758C3.12456 10.2477 3.1476 10.2147 3.15547 10.2034C3.20258 10.1192 3.9714 8.73402 3.97132 8.73418C4.04896 8.59409 4.19447 8.51479 4.34455 8.51487C4.41456 8.51487 4.48558 8.5321 4.55111 8.56844C4.63024 8.61264 4.69671 8.67706 4.7432 8.7547C4.83876 8.91399 4.84215 9.11331 4.75216 9.27463L4.51702 9.69812ZM4.52795 8.88384C4.50357 8.84317 4.47006 8.81076 4.42908 8.78779C4.34436 8.74091 4.2377 8.77143 4.19106 8.85583C3.64094 9.84693 3.4534 10.1847 3.38103 10.3049L3.38268 10.3053C3.37663 10.3254 3.37663 10.3254 3.3104 10.42C3.2879 10.452 3.26344 10.4828 3.23851 10.5131C2.84709 10.9873 2.80164 11.5841 3.11682 12.1096C3.31205 12.4351 3.63471 12.6582 4.0254 12.738C4.42034 12.8183 4.8366 12.7436 5.19789 12.5268L7.42378 11.1915C7.47459 11.1611 7.51046 11.1127 7.52478 11.0554C7.53909 10.9981 7.5302 10.9386 7.49968 10.8877C7.43691 10.7831 7.3006 10.7488 7.19598 10.8118L6.09792 11.4705C6.03845 11.5062 5.96121 11.487 5.92558 11.4275C5.88987 11.368 5.90914 11.2909 5.96861 11.2552L7.06675 10.5964L7.42339 10.3824C7.4742 10.3519 7.51015 10.3036 7.52446 10.2464C7.53878 10.189 7.52989 10.1294 7.49937 10.0787C7.43652 9.97398 7.30021 9.93992 7.19567 10.0027L5.74089 10.8754C5.68127 10.9112 5.60426 10.8918 5.56855 10.8324C5.53284 10.7729 5.55219 10.6957 5.61157 10.66L7.39704 9.58896C7.44785 9.55844 7.48372 9.51014 7.49804 9.4528C7.51235 9.39553 7.50346 9.33599 7.47302 9.28518C7.44258 9.23444 7.39421 9.19858 7.33687 9.18426C7.27921 9.16994 7.2199 9.17883 7.16924 9.2092L6.83872 9.40749C6.83865 9.40749 6.83864 9.40757 6.83857 9.40757H6.83849L5.38379 10.2803C5.32416 10.3162 5.24708 10.2968 5.21145 10.2373C5.17574 10.1778 5.19509 10.1006 5.25447 10.0649L6.70925 9.19221C6.76007 9.16169 6.79601 9.11331 6.81033 9.05613C6.82606 8.99336 6.8141 8.92917 6.77682 8.87537C6.71216 8.78185 6.57388 8.75699 6.46903 8.82L4.24475 10.1544C4.19606 10.1835 4.13369 10.1764 4.09287 10.137C4.05196 10.0975 4.04276 10.0354 4.07029 9.9858L4.53281 9.15249C4.57921 9.06919 4.5774 8.9663 4.52793 8.88387L4.52795 8.88384Z" fill="#103E13"/>
<path d="M13.2274 12.2388C12.9956 12.6254 12.6144 12.89 12.1538 12.984C11.6974 13.0771 11.2173 12.9913 10.8018 12.7422L8.57595 11.4069C8.46763 11.3419 8.39102 11.2387 8.36035 11.1161C8.3299 10.9938 8.34894 10.8668 8.41383 10.7586C8.45434 10.6909 8.51113 10.6376 8.57697 10.5982L8.57634 10.5978C8.46803 10.5328 8.39142 10.4296 8.3609 10.3072C8.33022 10.1848 8.34926 10.0577 8.41423 9.94932C8.45607 9.87971 8.51342 9.82528 8.57886 9.78666C8.48384 9.72129 8.41541 9.62636 8.38725 9.51371C8.35657 9.39124 8.37561 9.2642 8.44058 9.15596C8.50547 9.04765 8.60875 8.97112 8.73115 8.94052C8.76938 8.93093 8.80816 8.92621 8.84654 8.92621C8.9219 8.92629 8.99584 8.9454 9.0638 8.98096C9.06796 8.89294 9.09416 8.80649 9.1456 8.73231C9.28663 8.52883 9.56917 8.47251 9.78926 8.60457L11.612 9.69792L11.3771 9.27473C11.2869 9.11317 11.2902 8.91384 11.3858 8.75448C11.4324 8.67693 11.4989 8.6125 11.5784 8.56791C11.6438 8.53172 11.7146 8.51458 11.7844 8.51458C11.9344 8.51466 12.0801 8.59379 12.1577 8.73388C12.4279 9.22087 12.9379 10.1393 12.9738 10.2034C12.9814 10.2145 13.0045 10.2475 13.0242 10.2756C13.043 10.3023 13.0633 10.3277 13.0843 10.3531C13.5395 10.9048 13.5943 11.6273 13.2274 12.2388L13.2274 12.2388ZM12.8905 10.5132C12.8655 10.4829 12.841 10.452 12.8186 10.4201C12.7507 10.3237 12.749 10.3211 12.7438 10.2959C12.6644 10.1645 12.4706 9.81554 11.9378 8.85574C11.8911 8.77149 11.7849 8.74074 11.7004 8.78746C11.6588 8.81074 11.6253 8.84323 11.6009 8.8839C11.5515 8.96625 11.5497 9.06914 11.5963 9.15268L12.0587 9.98575C12.0863 10.0355 12.0771 10.0974 12.0362 10.1369C11.9955 10.1765 11.9332 10.1834 11.8843 10.1543L9.65999 8.81994C9.55514 8.7571 9.41694 8.78172 9.35212 8.87532C9.31484 8.92912 9.30296 8.99331 9.31854 9.056C9.33285 9.11326 9.3688 9.16156 9.41969 9.19208C9.41985 9.19216 9.41993 9.19231 9.42008 9.19239L10.8744 10.0649C10.9339 10.1006 10.9531 10.1777 10.9174 10.2372C10.8817 10.2966 10.8047 10.316 10.7451 10.2802L8.95962 9.20915C8.90897 9.17879 8.84934 9.16982 8.79208 9.18422C8.73466 9.19853 8.68636 9.2344 8.65592 9.28529C8.62541 9.33603 8.6166 9.39557 8.63075 9.45283C8.64507 9.5101 8.68102 9.55847 8.73183 9.58899L9.07926 9.79736L10.5172 10.6601C10.5767 10.6958 10.596 10.7729 10.5602 10.8324C10.5245 10.8918 10.4475 10.9112 10.3879 10.8755L8.93328 10.0027C8.82866 9.93981 8.69242 9.97395 8.6295 10.0787C8.59898 10.1295 8.59017 10.1891 8.60433 10.2463C8.61864 10.3036 8.65459 10.3519 8.70548 10.3825L9.06212 10.5965L10.1601 11.2552C10.2196 11.2909 10.2388 11.368 10.2031 11.4276C10.1674 11.4869 10.0904 11.5065 10.0308 11.4706L8.9328 10.8118C8.88215 10.7815 8.82276 10.7725 8.76518 10.7869C8.70792 10.8012 8.65947 10.8371 8.62903 10.8878C8.59859 10.9386 8.5897 10.9982 8.60386 11.0554C8.61817 11.1127 8.65412 11.161 8.70501 11.1916L10.9309 12.5269C11.2921 12.7436 11.7087 12.8186 12.1034 12.7381C12.494 12.6583 12.8167 12.4351 13.0119 12.1097C13.3274 11.5841 13.282 10.9872 12.8907 10.5131L12.8905 10.5132Z" fill="#103E13"/>
</svg>
