<svg width="17" height="17" viewBox="0 0 17 17" fill="none" xmlns="http://www.w3.org/2000/svg">
<g clip-path="url(#clip0_212_1407)">
<path d="M10.6101 2.92163H10.6111C11.399 2.91934 12.1689 3.1594 12.8152 3.61011C13.4614 4.06082 13.9532 4.70004 14.2234 5.44019C14.4935 6.18043 14.529 6.98669 14.325 7.7478C14.1208 8.50877 13.6869 9.18839 13.0828 9.69409L12.8787 9.86499L13.1208 9.97437C14.1134 10.4235 14.9676 11.1302 15.5945 12.0212L15.5955 12.0222C15.64 12.0845 15.6722 12.1555 15.6892 12.2302C15.7062 12.3048 15.7082 12.3824 15.6951 12.4578C15.682 12.5331 15.6542 12.6052 15.613 12.6697C15.5718 12.7342 15.5178 12.7901 15.4548 12.8337L15.4529 12.8347C15.3555 12.9043 15.2386 12.9415 15.1189 12.9412L15.0486 12.9373C14.9793 12.9285 14.9116 12.9072 14.8494 12.8748C14.7666 12.8316 14.6955 12.7692 14.6414 12.6931C14.1861 12.0472 13.5819 11.5202 12.8806 11.156C12.2672 10.8375 11.5948 10.6512 10.907 10.6091L10.6111 10.6003L10.4958 10.5886C10.3839 10.5661 10.28 10.5113 10.198 10.4294C10.0885 10.3199 10.0262 10.1712 10.0261 10.0164C10.0261 9.8614 10.0884 9.71284 10.198 9.60327C10.3076 9.49371 10.4561 9.4314 10.6111 9.4314C11.3193 9.4313 11.9989 9.14999 12.4998 8.64917C13.0004 8.14831 13.282 7.46871 13.282 6.7605C13.2819 6.05225 13.0006 5.37264 12.4998 4.87183C11.9989 4.37101 11.3193 4.08969 10.6111 4.0896C10.3669 4.08914 10.1233 4.12318 9.88843 4.19019L9.88647 4.19116C9.81245 4.21317 9.73475 4.21986 9.65796 4.21167C9.58091 4.20342 9.50612 4.17971 9.43823 4.14233C9.37038 4.10496 9.31061 4.05457 9.26245 3.9939C9.2143 3.93321 9.17894 3.86339 9.15796 3.78882C9.13701 3.71428 9.13093 3.63617 9.14038 3.55933C9.14985 3.48263 9.17436 3.40868 9.21265 3.34155C9.25108 3.27426 9.30257 3.21495 9.36401 3.16772C9.42534 3.1206 9.49532 3.086 9.57007 3.06616L9.573 3.06519C9.91016 2.9692 10.2595 2.92108 10.6101 2.92163ZM5.50854 2.91675C6.29592 2.91675 7.06455 3.15877 7.70972 3.61011C8.35496 4.06161 8.84615 4.7013 9.11597 5.44116C9.38564 6.18091 9.42158 6.98609 9.21851 7.74683C9.01535 8.50755 8.58276 9.18721 7.98022 9.69409L7.77808 9.86499L8.01929 9.97437C8.88788 10.3675 9.65075 10.9575 10.2478 11.696L10.4929 12.0212L10.4978 12.0281C10.5465 12.0905 10.5821 12.1625 10.6023 12.239C10.6224 12.3154 10.6266 12.3952 10.615 12.4734C10.6034 12.5516 10.5764 12.6268 10.5349 12.6941C10.4934 12.7614 10.4384 12.8194 10.3738 12.865C10.3091 12.9106 10.2354 12.9424 10.158 12.9587C10.0807 12.9751 10.001 12.9761 9.92358 12.9607C9.84596 12.9452 9.77204 12.9137 9.70679 12.8689C9.67423 12.8465 9.64421 12.821 9.61694 12.7927L9.5437 12.7L9.53882 12.6931C9.08454 12.0462 8.48143 11.5176 7.78003 11.1531C7.07854 10.7885 6.29912 10.5984 5.50854 10.5984C4.71819 10.5984 3.93936 10.7886 3.23804 11.1531C2.53653 11.5177 1.93257 12.0461 1.47827 12.6931V12.6941C1.42487 12.7707 1.35313 12.8336 1.27026 12.8767C1.18747 12.9197 1.095 12.9414 1.00171 12.9412H1.00073C0.881 12.9415 0.764164 12.9043 0.666748 12.8347H0.665771C0.539378 12.7455 0.45396 12.6092 0.42749 12.4568C0.401087 12.3044 0.436273 12.1478 0.525146 12.0212C1.15207 11.1302 2.00622 10.4235 2.99878 9.97437L3.23999 9.86499L3.03687 9.69409C2.43449 9.18726 2.00269 8.5074 1.79956 7.74683C1.59648 6.98604 1.63238 6.18094 1.9021 5.44116C2.17191 4.70132 2.66215 4.06161 3.30737 3.61011C3.95253 3.15866 4.72113 2.91681 5.50854 2.91675ZM6.03003 4.14136C5.51196 4.03831 4.97508 4.09159 4.48706 4.2937C3.99901 4.49586 3.58133 4.83787 3.28784 5.2771C2.9945 5.71619 2.83772 6.23244 2.83765 6.7605C2.83765 7.46872 3.11918 8.1483 3.61987 8.64917C4.1207 9.15 4.80028 9.43132 5.50854 9.4314C6.03681 9.4314 6.55369 9.27469 6.99292 8.9812C7.43198 8.68773 7.77421 8.27087 7.97632 7.78296C8.17844 7.29499 8.23166 6.75803 8.12866 6.23999C8.0256 5.72188 7.77075 5.24536 7.39722 4.87183C7.02376 4.4985 6.54794 4.2444 6.03003 4.14136Z" fill="#4CAF4F" stroke="#4CAF4F" stroke-width="0.333867"/>
</g>
<defs>
<clipPath id="clip0_212_1407">
<rect width="16.0256" height="16.0256" fill="white"/>
</clipPath>
</defs>
</svg>
