<svg width="17" height="17" viewBox="0 0 17 17" fill="none" xmlns="http://www.w3.org/2000/svg">
<path d="M3.25537 2.67102H12.77C13.3234 2.67102 13.8543 2.89102 14.2456 3.28235C14.6369 3.67367 14.8569 4.20453 14.8569 4.75793V11.2677C14.8569 11.8211 14.6369 12.352 14.2456 12.7433C13.8543 13.1346 13.3234 13.3546 12.77 13.3546H3.25537C2.70195 13.3546 2.17111 13.1346 1.77979 12.7433C1.38847 12.352 1.16846 11.8211 1.16846 11.2677V4.75793C1.16846 4.20452 1.38846 3.67367 1.77979 3.28235C2.17111 2.89102 2.70195 2.67102 3.25537 2.67102ZM1.83643 11.2677C1.83643 11.644 1.98537 12.0055 2.25146 12.2716C2.51757 12.5377 2.87905 12.6866 3.25537 12.6866H12.77C13.1463 12.6866 13.5078 12.5377 13.7739 12.2716C14.04 12.0055 14.189 11.644 14.189 11.2677V6.34387H1.83643V11.2677ZM10.5171 9.68176H12.019C12.1076 9.68176 12.1928 9.71778 12.2554 9.7804C12.3177 9.84291 12.353 9.92746 12.353 10.0157C12.353 10.1042 12.3179 10.1895 12.2554 10.2521C12.1928 10.3147 12.1076 10.3497 12.019 10.3497H10.5171C10.4286 10.3497 10.3434 10.3146 10.2808 10.2521C10.2181 10.1895 10.1831 10.1043 10.1831 10.0157C10.1832 9.92736 10.2183 9.84293 10.2808 9.7804C10.3434 9.71778 10.4285 9.68176 10.5171 9.68176ZM3.25537 3.33899C2.87905 3.33899 2.51757 3.48793 2.25146 3.75403C1.98536 4.02013 1.83643 4.38161 1.83643 4.75793V5.6759H14.189V4.75793C14.189 4.38163 14.04 4.02013 13.7739 3.75403C13.5078 3.48793 13.1463 3.33899 12.77 3.33899H3.25537Z" fill="#4CAF4F" stroke="#4CAF4F" stroke-width="0.333867"/>
</svg>
