<svg width="60" height="19" viewBox="0 0 60 19" fill="none" xmlns="http://www.w3.org/2000/svg">
<rect width="59.3803" height="18.3483" rx="1.33547" fill="#4CAF4F"/>
<path d="M13.7785 8.01648C13.7418 7.9014 13.6925 7.79833 13.6305 7.70727C13.5698 7.61495 13.4971 7.53655 13.4123 7.47205C13.3276 7.40629 13.2309 7.35633 13.1221 7.32219C13.0146 7.28804 12.8964 7.27097 12.7674 7.27097C12.5486 7.27097 12.3513 7.32725 12.1755 7.4398C11.9997 7.55235 11.8606 7.71739 11.7582 7.93491C11.657 8.15116 11.6064 8.41611 11.6064 8.72974C11.6064 9.04464 11.6576 9.31084 11.7601 9.52836C11.8625 9.74588 12.0029 9.91092 12.1812 10.0235C12.3595 10.136 12.5625 10.1923 12.7901 10.1923C13.0013 10.1923 13.1853 10.1493 13.3422 10.0633C13.5002 9.97731 13.6223 9.85591 13.7083 9.69909C13.7955 9.54101 13.8392 9.35511 13.8392 9.14138L13.9909 9.16984H12.8793V8.68611H14.4064V9.1281C14.4064 9.45438 14.3368 9.73766 14.1977 9.97795C14.0598 10.217 13.8689 10.4016 13.6248 10.5319C13.382 10.6621 13.1038 10.7272 12.7901 10.7272C12.4386 10.7272 12.13 10.6463 11.8644 10.4844C11.6001 10.3226 11.394 10.093 11.246 9.79584C11.098 9.49738 11.0241 9.14328 11.0241 8.73353C11.0241 8.4237 11.0671 8.14547 11.1531 7.89887C11.2391 7.65226 11.3598 7.44296 11.5154 7.27097C11.6722 7.09771 11.8562 6.96556 12.0674 6.8745C12.2799 6.78219 12.5119 6.73603 12.7636 6.73603C12.9735 6.73603 13.1689 6.76701 13.3497 6.82898C13.5319 6.89094 13.6937 6.97884 13.8354 7.09266C13.9783 7.20647 14.0965 7.34179 14.1901 7.49861C14.2837 7.65416 14.3469 7.82678 14.3798 8.01648H13.7785ZM16.3607 10.7329C16.0736 10.7329 15.8264 10.6716 15.619 10.5489C15.4129 10.425 15.2535 10.2511 15.141 10.0273C15.0297 9.80216 14.974 9.53848 14.974 9.23623C14.974 8.93777 15.0297 8.67473 15.141 8.44709C15.2535 8.21946 15.4103 8.04177 15.6114 7.91404C15.8138 7.78631 16.0502 7.72245 16.3209 7.72245C16.4853 7.72245 16.6446 7.74964 16.7989 7.80402C16.9532 7.8584 17.0917 7.94376 17.2143 8.06011C17.337 8.17646 17.4338 8.32758 17.5046 8.51349C17.5754 8.69812 17.6108 8.9226 17.6108 9.18691V9.38799H15.2946V8.96307H17.055C17.055 8.81384 17.0246 8.68168 16.9639 8.5666C16.9032 8.45025 16.8179 8.35857 16.7079 8.29154C16.5991 8.22451 16.4714 8.191 16.3247 8.191C16.1653 8.191 16.0262 8.2302 15.9073 8.30861C15.7897 8.38576 15.6987 8.48693 15.6342 8.61213C15.5709 8.73606 15.5393 8.87075 15.5393 9.01618V9.34815C15.5393 9.54291 15.5735 9.70858 15.6418 9.84516C15.7113 9.98174 15.8081 10.0861 15.932 10.1582C16.0559 10.229 16.2007 10.2644 16.3664 10.2644C16.4739 10.2644 16.5719 10.2492 16.6604 10.2189C16.749 10.1872 16.8255 10.1405 16.89 10.0785C16.9545 10.0165 17.0038 9.94001 17.0379 9.84895L17.5748 9.9457C17.5318 10.1038 17.4546 10.2423 17.3433 10.3611C17.2333 10.4787 17.0948 10.5704 16.9279 10.6362C16.7622 10.7007 16.5732 10.7329 16.3607 10.7329ZM19.6003 7.76039V8.21566H18.0087V7.76039H19.6003ZM18.4355 7.0623H19.0027V9.8186C19.0027 9.92862 19.0192 10.0115 19.052 10.0671C19.0849 10.1215 19.1273 10.1588 19.1791 10.179C19.2322 10.198 19.2898 10.2075 19.3518 10.2075C19.3973 10.2075 19.4371 10.2043 19.4713 10.198C19.5054 10.1917 19.532 10.1866 19.5509 10.1828L19.6534 10.6514C19.6205 10.664 19.5737 10.6767 19.513 10.6893C19.4523 10.7032 19.3764 10.7108 19.2854 10.7121C19.1361 10.7146 18.997 10.688 18.868 10.6324C18.739 10.5768 18.6347 10.4908 18.555 10.3744C18.4754 10.2581 18.4355 10.112 18.4355 9.93621V7.0623ZM22.4893 10.7386C22.3047 10.7386 22.1378 10.7045 21.9885 10.6362C21.8393 10.5666 21.7211 10.4661 21.6338 10.3346C21.5478 10.2031 21.5048 10.0418 21.5048 9.85085C21.5048 9.68644 21.5364 9.55113 21.5997 9.4449C21.6629 9.33867 21.7483 9.25457 21.8558 9.1926C21.9632 9.13063 22.0834 9.08384 22.2162 9.05222C22.349 9.02061 22.4843 8.99658 22.6221 8.98014C22.7967 8.95991 22.9383 8.94347 23.0471 8.93082C23.1558 8.91691 23.2349 8.89478 23.2842 8.86442C23.3335 8.83407 23.3582 8.78475 23.3582 8.71646V8.70318C23.3582 8.53751 23.3114 8.40915 23.2178 8.3181C23.1255 8.22704 22.9876 8.18152 22.8042 8.18152C22.6133 8.18152 22.4628 8.22388 22.3528 8.30861C22.244 8.39208 22.1688 8.48503 22.127 8.58747L21.594 8.46606C21.6572 8.28901 21.7495 8.14611 21.8709 8.03735C21.9936 7.92732 22.1346 7.84765 22.294 7.79833C22.4533 7.74774 22.6209 7.72245 22.7967 7.72245C22.913 7.72245 23.0363 7.73636 23.1666 7.76418C23.2981 7.79074 23.4208 7.84006 23.5346 7.91215C23.6497 7.98423 23.7439 8.0873 23.8172 8.22135C23.8906 8.35414 23.9272 8.52676 23.9272 8.73922V10.6741H23.3733V10.2758H23.3506C23.3139 10.3491 23.2589 10.4212 23.1855 10.492C23.1122 10.5628 23.018 10.6217 22.9029 10.6684C22.7878 10.7152 22.65 10.7386 22.4893 10.7386ZM22.6126 10.2834C22.7695 10.2834 22.9035 10.2524 23.0148 10.1904C23.1274 10.1284 23.2127 10.0475 23.2709 9.94759C23.3303 9.84642 23.3601 9.7383 23.3601 9.62321V9.24761C23.3398 9.26785 23.3006 9.28682 23.2424 9.30452C23.1855 9.32096 23.1204 9.33551 23.0471 9.34815C22.9737 9.35953 22.9022 9.37028 22.8327 9.3804C22.7631 9.38925 22.705 9.39684 22.6582 9.40316C22.5481 9.41708 22.4476 9.44047 22.3566 9.47335C22.2668 9.50623 22.1947 9.55366 22.1403 9.61562C22.0872 9.67633 22.0606 9.75726 22.0606 9.85844C22.0606 9.99881 22.1125 10.105 22.2162 10.1771C22.3199 10.2479 22.452 10.2834 22.6126 10.2834ZM27.3996 10.6741H26.142V6.78914H27.4395C27.8201 6.78914 28.1471 6.86692 28.4202 7.02247C28.6934 7.17675 28.9027 7.3987 29.0481 7.6883C29.1948 7.97664 29.2682 8.32252 29.2682 8.72595C29.2682 9.13063 29.1942 9.47841 29.0462 9.76928C28.8995 10.0601 28.6871 10.284 28.4088 10.4408C28.1306 10.5964 27.7942 10.6741 27.3996 10.6741ZM26.7281 10.162H27.3674C27.6633 10.162 27.9093 10.1063 28.1053 9.99502C28.3013 9.88246 28.448 9.71996 28.5454 9.5075C28.6428 9.29377 28.6915 9.03326 28.6915 8.72595C28.6915 8.42117 28.6428 8.16255 28.5454 7.95009C28.4493 7.73763 28.3058 7.57638 28.1148 7.46636C27.9238 7.35633 27.6867 7.30132 27.4034 7.30132H26.7281V10.162ZM31.2073 10.7329C30.9203 10.7329 30.673 10.6716 30.4656 10.5489C30.2595 10.425 30.1001 10.2511 29.9876 10.0273C29.8763 9.80216 29.8207 9.53848 29.8207 9.23623C29.8207 8.93777 29.8763 8.67473 29.9876 8.44709C30.1001 8.21946 30.257 8.04177 30.458 7.91404C30.6604 7.78631 30.8969 7.72245 31.1675 7.72245C31.3319 7.72245 31.4912 7.74964 31.6455 7.80402C31.7998 7.8584 31.9383 7.94376 32.061 8.06011C32.1836 8.17646 32.2804 8.32758 32.3512 8.51349C32.422 8.69812 32.4574 8.9226 32.4574 9.18691V9.38799H30.1412V8.96307H31.9016C31.9016 8.81384 31.8713 8.68168 31.8106 8.5666C31.7499 8.45025 31.6645 8.35857 31.5545 8.29154C31.4457 8.22451 31.318 8.191 31.1713 8.191C31.0119 8.191 30.8728 8.2302 30.754 8.30861C30.6363 8.38576 30.5453 8.48693 30.4808 8.61213C30.4176 8.73606 30.3859 8.87075 30.3859 9.01618V9.34815C30.3859 9.54291 30.4201 9.70858 30.4884 9.84516C30.5579 9.98174 30.6547 10.0861 30.7786 10.1582C30.9026 10.229 31.0474 10.2644 31.213 10.2644C31.3205 10.2644 31.4185 10.2492 31.5071 10.2189C31.5956 10.1872 31.6721 10.1405 31.7366 10.0785C31.8011 10.0165 31.8504 9.94001 31.8846 9.84895L32.4214 9.9457C32.3784 10.1038 32.3013 10.2423 32.19 10.3611C32.0799 10.4787 31.9415 10.5704 31.7745 10.6362C31.6089 10.7007 31.4198 10.7329 31.2073 10.7329ZM33.0868 10.6741V7.76039H33.6312V8.23463H33.6672C33.7279 8.07402 33.8272 7.94882 33.9651 7.85903C34.1029 7.76798 34.2679 7.72245 34.4602 7.72245C34.6549 7.72245 34.8181 7.76798 34.9496 7.85903C35.0824 7.95009 35.1804 8.07529 35.2436 8.23463H35.274C35.3435 8.07908 35.4542 7.95514 35.6059 7.86283C35.7577 7.76924 35.9385 7.72245 36.1485 7.72245C36.4128 7.72245 36.6284 7.80528 36.7953 7.97095C36.9635 8.13662 37.0476 8.38639 37.0476 8.72026V10.6741H36.4804V8.77337C36.4804 8.57609 36.4267 8.43318 36.3192 8.34466C36.2117 8.25613 36.0833 8.21187 35.9341 8.21187C35.7495 8.21187 35.6059 8.26878 35.5035 8.38259C35.4011 8.49515 35.3498 8.63995 35.3498 8.817V10.6741H34.7845V8.73733C34.7845 8.57925 34.7352 8.45215 34.6366 8.35604C34.5379 8.25992 34.4096 8.21187 34.2515 8.21187C34.144 8.21187 34.0447 8.24032 33.9537 8.29723C33.8639 8.35288 33.7912 8.43065 33.7355 8.53056C33.6811 8.63047 33.654 8.74618 33.654 8.8777V10.6741H33.0868ZM39.0352 10.7329C38.762 10.7329 38.5236 10.6703 38.32 10.5451C38.1164 10.4199 37.9583 10.2448 37.8458 10.0197C37.7332 9.79457 37.6769 9.53153 37.6769 9.23054C37.6769 8.92829 37.7332 8.66398 37.8458 8.43761C37.9583 8.21124 38.1164 8.03545 38.32 7.91025C38.5236 7.78505 38.762 7.72245 39.0352 7.72245C39.3083 7.72245 39.5467 7.78505 39.7503 7.91025C39.9539 8.03545 40.112 8.21124 40.2246 8.43761C40.3371 8.66398 40.3934 8.92829 40.3934 9.23054C40.3934 9.53153 40.3371 9.79457 40.2246 10.0197C40.112 10.2448 39.9539 10.4199 39.7503 10.5451C39.5467 10.6703 39.3083 10.7329 39.0352 10.7329ZM39.0371 10.2568C39.2141 10.2568 39.3608 10.21 39.4772 10.1164C39.5935 10.0228 39.6795 9.89827 39.7352 9.74272C39.7921 9.58717 39.8205 9.41581 39.8205 9.22864C39.8205 9.04274 39.7921 8.87201 39.7352 8.71646C39.6795 8.55965 39.5935 8.43381 39.4772 8.33896C39.3608 8.24412 39.2141 8.19669 39.0371 8.19669C38.8588 8.19669 38.7108 8.24412 38.5932 8.33896C38.4768 8.43381 38.3902 8.55965 38.3333 8.71646C38.2777 8.87201 38.2498 9.04274 38.2498 9.22864C38.2498 9.41581 38.2777 9.58717 38.3333 9.74272C38.3902 9.89827 38.4768 10.0228 38.5932 10.1164C38.7108 10.21 38.8588 10.2568 39.0371 10.2568Z" fill="white"/>
<path d="M47.1109 10.1757L47.9354 9.35116C48.0332 9.25337 48.0332 9.09482 47.9354 8.99703L47.1109 8.17247M47.8621 9.17409L44.1895 9.17409" stroke="white" stroke-width="0.367253" stroke-linecap="round"/>
</svg>
