<svg width="15" height="10" viewBox="0 0 15 10" fill="none" xmlns="http://www.w3.org/2000/svg">
<path d="M7.75448 5.42131L5.52928 9.23234L3.3041 5.42131H7.75448ZM8.3506 5.08069H2.70557L5.52928 9.90643L8.3506 5.08069Z" fill="white"/>
<path d="M11.623 0.681222L13.8482 4.49225H9.39784L11.623 0.681222ZM11.623 0L8.79932 4.82572H14.4468L11.623 0Z" fill="white"/>
<path d="M0 0L2.36759 4.26836L4.95479 0.107179L0 0Z" fill="#4CAF4F"/>
<path d="M5.52927 0.37384L8.01271 4.61838H3.04102L5.52927 0.37384Z" fill="#4CAF4F"/>
<path d="M8.6522 5.54517L11.138 9.90644H6.0481L8.57496 5.54517H8.6522Z" fill="#4CAF4F"/>
<path d="M9.19043 5.2807L11.6232 9.57526L14.0897 5.2807H9.19043Z" fill="#4CAF4F"/>
</svg>
